# xmcd
# 
# Track frame offsets:
#     150
#     30412
#     46350
#     64875
#     92850
#     115725
#     144450
#     166575
#     186487
#     215775
#     234900
# 
# Disc length: 3471
# 
# Revision: 7
# Processed by: cddbd v1.5.2PL0 Copyright (c) Steve Scherf et al.
# Submitted via: fre:ac v1.0.27
# 
DISCID=960d8d0b
DTITLE=Kelly Joe Phelps - Shine Eyed Mister Zen
DYEAR=1999
DGENRE=Blues
TTITLE0=The House Carpenter
TTITLE1=River Rat Jimmy
TTITLE2=Hobo's Son
TTITLE3=Katy
TTITLE4=Wandering Away
TTITLE5=Dock Boggs Country Blues
TTITLE6=Capman Bootman
TTITLE7=Train Carried My Girl from Town
TTITLE8=Piece by Piece
TTITLE9=Many a Time
TTITLE10=Goodnight Irene
EXTD=YEAR: 1999
EXTT0=
EXTT1=
EXTT2=
EXTT3=
EXTT4=
EXTT5=
EXTT6=
EXTT7=
EXTT8=
EXTT9=
EXTT10=
PLAYORDER=
